<svg fill="#563d7c" width="800" height="800" viewBox="0 0 64 64" xmlns="http://www.w3.org/2000/svg"><path d="M41.4016 39.7C41.4016 45.6 35.9016 45.5 35.4016 45.5H24.1016V34.2H35.3016C41.3016 34 41.4016 38.5 41.4016 39.7ZM34.5016 29.5C34.6016 29.5 39.8016 29.6 39.8016 24.4C39.8016 22.3 39.4016 19.5 34.5016 19.5H24.1016V29.5H34.5016ZM62.9016 11.4V52.7C62.9016 58.3 58.3016 63 52.5016 63H11.5016C5.70156 63 1.10156 58.4 1.10156 52.6V11.4C1.10156 5.6 5.70156 1 11.5016 1H52.8016C58.3016 1 62.9016 5.6 62.9016 11.4ZM47.7016 40.4C47.7016 37.4 46.9016 32.4 41.0016 31.1V31C44.2016 29.6 46.1016 27.1 46.1016 23.4C46.1016 22.4 46.4016 14.4 35.4016 14.4H17.9016V50.4C35.6016 50.4 37.3016 50.5 40.5016 49.7C42.4016 49.1 47.7016 47.3 47.7016 40.4Z"/></svg>